<svg xmlns="http://www.w3.org/2000/svg" viewBox="0 0 256 256" width="50px" height="50px">
  <g fill="#ffffff">
    <path d="M128 64c-35.346 0-64 28.654-64 64s28.654 64 64 64 64-28.654 64-64-28.654-64-64-64zm0 104c-22.091 0-40-17.909-40-40s17.909-40 40-40 40 17.909 40 40-17.909 40-40 40zm52-104c-4.418 0-8-3.582-8-8s3.582-8 8-8 8 3.582 8 8-3.582 8-8 8zm44 8c0-26.51-21.49-48-48-48H80c-26.51 0-48 21.49-48 48v96c0 26.51 21.49 48 48 48h96c26.51 0 48-21.49 48-48V72zm-16 96c0 17.673-14.327 32-32 32H80c-17.673 0-32-14.327-32-32V88c0-17.673 14.327-32 32-32h96c17.673 0 32 14.327 32 32v80z"/>
  </g>
</svg>
